<?xml version="1.0" encoding="UTF-8"?>
<svg xmlns="http://www.w3.org/2000/svg" xmlns:xlink="http://www.w3.org/1999/xlink" version="1.1" width="150px" height="150px" viewBox="0 0 150 150"><defs><rect id="r0" width="6" height="6" fill="#000000"/></defs><rect x="0" y="0" width="150" height="150" fill="#fefefe"/><use x="12" y="12" xlink:href="#r0"/><use x="18" y="12" xlink:href="#r0"/><use x="24" y="12" xlink:href="#r0"/><use x="30" y="12" xlink:href="#r0"/><use x="36" y="12" xlink:href="#r0"/><use x="42" y="12" xlink:href="#r0"/><use x="48" y="12" xlink:href="#r0"/><use x="66" y="12" xlink:href="#r0"/><use x="78" y="12" xlink:href="#r0"/><use x="84" y="12" xlink:href="#r0"/><use x="96" y="12" xlink:href="#r0"/><use x="102" y="12" xlink:href="#r0"/><use x="108" y="12" xlink:href="#r0"/><use x="114" y="12" xlink:href="#r0"/><use x="120" y="12" xlink:href="#r0"/><use x="126" y="12" xlink:href="#r0"/><use x="132" y="12" xlink:href="#r0"/><use x="12" y="18" xlink:href="#r0"/><use x="48" y="18" xlink:href="#r0"/><use x="60" y="18" xlink:href="#r0"/><use x="66" y="18" xlink:href="#r0"/><use x="78" y="18" xlink:href="#r0"/><use x="96" y="18" xlink:href="#r0"/><use x="132" y="18" xlink:href="#r0"/><use x="12" y="24" xlink:href="#r0"/><use x="24" y="24" xlink:href="#r0"/><use x="30" y="24" xlink:href="#r0"/><use x="36" y="24" xlink:href="#r0"/><use x="48" y="24" xlink:href="#r0"/><use x="60" y="24" xlink:href="#r0"/><use x="66" y="24" xlink:href="#r0"/><use x="84" y="24" xlink:href="#r0"/><use x="96" y="24" xlink:href="#r0"/><use x="108" y="24" xlink:href="#r0"/><use x="114" y="24" xlink:href="#r0"/><use x="120" y="24" xlink:href="#r0"/><use x="132" y="24" xlink:href="#r0"/><use x="12" y="30" xlink:href="#r0"/><use x="24" y="30" xlink:href="#r0"/><use x="30" y="30" xlink:href="#r0"/><use x="36" y="30" xlink:href="#r0"/><use x="48" y="30" xlink:href="#r0"/><use x="66" y="30" xlink:href="#r0"/><use x="78" y="30" xlink:href="#r0"/><use x="96" y="30" xlink:href="#r0"/><use x="108" y="30" xlink:href="#r0"/><use x="114" y="30" xlink:href="#r0"/><use x="120" y="30" xlink:href="#r0"/><use x="132" y="30" xlink:href="#r0"/><use x="12" y="36" xlink:href="#r0"/><use x="24" y="36" xlink:href="#r0"/><use x="30" y="36" xlink:href="#r0"/><use x="36" y="36" xlink:href="#r0"/><use x="48" y="36" xlink:href="#r0"/><use x="60" y="36" xlink:href="#r0"/><use x="84" y="36" xlink:href="#r0"/><use x="96" y="36" xlink:href="#r0"/><use x="108" y="36" xlink:href="#r0"/><use x="114" y="36" xlink:href="#r0"/><use x="120" y="36" xlink:href="#r0"/><use x="132" y="36" xlink:href="#r0"/><use x="12" y="42" xlink:href="#r0"/><use x="48" y="42" xlink:href="#r0"/><use x="60" y="42" xlink:href="#r0"/><use x="78" y="42" xlink:href="#r0"/><use x="84" y="42" xlink:href="#r0"/><use x="96" y="42" xlink:href="#r0"/><use x="132" y="42" xlink:href="#r0"/><use x="12" y="48" xlink:href="#r0"/><use x="18" y="48" xlink:href="#r0"/><use x="24" y="48" xlink:href="#r0"/><use x="30" y="48" xlink:href="#r0"/><use x="36" y="48" xlink:href="#r0"/><use x="42" y="48" xlink:href="#r0"/><use x="48" y="48" xlink:href="#r0"/><use x="60" y="48" xlink:href="#r0"/><use x="72" y="48" xlink:href="#r0"/><use x="84" y="48" xlink:href="#r0"/><use x="96" y="48" xlink:href="#r0"/><use x="102" y="48" xlink:href="#r0"/><use x="108" y="48" xlink:href="#r0"/><use x="114" y="48" xlink:href="#r0"/><use x="120" y="48" xlink:href="#r0"/><use x="126" y="48" xlink:href="#r0"/><use x="132" y="48" xlink:href="#r0"/><use x="60" y="54" xlink:href="#r0"/><use x="66" y="54" xlink:href="#r0"/><use x="72" y="54" xlink:href="#r0"/><use x="78" y="54" xlink:href="#r0"/><use x="84" y="54" xlink:href="#r0"/><use x="12" y="60" xlink:href="#r0"/><use x="18" y="60" xlink:href="#r0"/><use x="30" y="60" xlink:href="#r0"/><use x="48" y="60" xlink:href="#r0"/><use x="54" y="60" xlink:href="#r0"/><use x="66" y="60" xlink:href="#r0"/><use x="72" y="60" xlink:href="#r0"/><use x="96" y="60" xlink:href="#r0"/><use x="102" y="60" xlink:href="#r0"/><use x="108" y="60" xlink:href="#r0"/><use x="120" y="60" xlink:href="#r0"/><use x="126" y="60" xlink:href="#r0"/><use x="12" y="66" xlink:href="#r0"/><use x="18" y="66" xlink:href="#r0"/><use x="24" y="66" xlink:href="#r0"/><use x="36" y="66" xlink:href="#r0"/><use x="42" y="66" xlink:href="#r0"/><use x="72" y="66" xlink:href="#r0"/><use x="96" y="66" xlink:href="#r0"/><use x="24" y="72" xlink:href="#r0"/><use x="42" y="72" xlink:href="#r0"/><use x="48" y="72" xlink:href="#r0"/><use x="60" y="72" xlink:href="#r0"/><use x="66" y="72" xlink:href="#r0"/><use x="72" y="72" xlink:href="#r0"/><use x="84" y="72" xlink:href="#r0"/><use x="90" y="72" xlink:href="#r0"/><use x="120" y="72" xlink:href="#r0"/><use x="18" y="78" xlink:href="#r0"/><use x="30" y="78" xlink:href="#r0"/><use x="42" y="78" xlink:href="#r0"/><use x="78" y="78" xlink:href="#r0"/><use x="114" y="78" xlink:href="#r0"/><use x="120" y="78" xlink:href="#r0"/><use x="126" y="78" xlink:href="#r0"/><use x="12" y="84" xlink:href="#r0"/><use x="24" y="84" xlink:href="#r0"/><use x="30" y="84" xlink:href="#r0"/><use x="36" y="84" xlink:href="#r0"/><use x="42" y="84" xlink:href="#r0"/><use x="48" y="84" xlink:href="#r0"/><use x="54" y="84" xlink:href="#r0"/><use x="60" y="84" xlink:href="#r0"/><use x="66" y="84" xlink:href="#r0"/><use x="84" y="84" xlink:href="#r0"/><use x="96" y="84" xlink:href="#r0"/><use x="108" y="84" xlink:href="#r0"/><use x="114" y="84" xlink:href="#r0"/><use x="120" y="84" xlink:href="#r0"/><use x="60" y="90" xlink:href="#r0"/><use x="66" y="90" xlink:href="#r0"/><use x="78" y="90" xlink:href="#r0"/><use x="102" y="90" xlink:href="#r0"/><use x="108" y="90" xlink:href="#r0"/><use x="120" y="90" xlink:href="#r0"/><use x="132" y="90" xlink:href="#r0"/><use x="12" y="96" xlink:href="#r0"/><use x="18" y="96" xlink:href="#r0"/><use x="24" y="96" xlink:href="#r0"/><use x="30" y="96" xlink:href="#r0"/><use x="36" y="96" xlink:href="#r0"/><use x="42" y="96" xlink:href="#r0"/><use x="48" y="96" xlink:href="#r0"/><use x="60" y="96" xlink:href="#r0"/><use x="72" y="96" xlink:href="#r0"/><use x="90" y="96" xlink:href="#r0"/><use x="102" y="96" xlink:href="#r0"/><use x="114" y="96" xlink:href="#r0"/><use x="120" y="96" xlink:href="#r0"/><use x="132" y="96" xlink:href="#r0"/><use x="12" y="102" xlink:href="#r0"/><use x="48" y="102" xlink:href="#r0"/><use x="72" y="102" xlink:href="#r0"/><use x="78" y="102" xlink:href="#r0"/><use x="84" y="102" xlink:href="#r0"/><use x="90" y="102" xlink:href="#r0"/><use x="102" y="102" xlink:href="#r0"/><use x="108" y="102" xlink:href="#r0"/><use x="114" y="102" xlink:href="#r0"/><use x="12" y="108" xlink:href="#r0"/><use x="24" y="108" xlink:href="#r0"/><use x="30" y="108" xlink:href="#r0"/><use x="36" y="108" xlink:href="#r0"/><use x="48" y="108" xlink:href="#r0"/><use x="66" y="108" xlink:href="#r0"/><use x="78" y="108" xlink:href="#r0"/><use x="96" y="108" xlink:href="#r0"/><use x="102" y="108" xlink:href="#r0"/><use x="108" y="108" xlink:href="#r0"/><use x="120" y="108" xlink:href="#r0"/><use x="126" y="108" xlink:href="#r0"/><use x="132" y="108" xlink:href="#r0"/><use x="12" y="114" xlink:href="#r0"/><use x="24" y="114" xlink:href="#r0"/><use x="30" y="114" xlink:href="#r0"/><use x="36" y="114" xlink:href="#r0"/><use x="48" y="114" xlink:href="#r0"/><use x="60" y="114" xlink:href="#r0"/><use x="78" y="114" xlink:href="#r0"/><use x="114" y="114" xlink:href="#r0"/><use x="120" y="114" xlink:href="#r0"/><use x="126" y="114" xlink:href="#r0"/><use x="132" y="114" xlink:href="#r0"/><use x="12" y="120" xlink:href="#r0"/><use x="24" y="120" xlink:href="#r0"/><use x="30" y="120" xlink:href="#r0"/><use x="36" y="120" xlink:href="#r0"/><use x="48" y="120" xlink:href="#r0"/><use x="66" y="120" xlink:href="#r0"/><use x="72" y="120" xlink:href="#r0"/><use x="84" y="120" xlink:href="#r0"/><use x="108" y="120" xlink:href="#r0"/><use x="132" y="120" xlink:href="#r0"/><use x="12" y="126" xlink:href="#r0"/><use x="48" y="126" xlink:href="#r0"/><use x="60" y="126" xlink:href="#r0"/><use x="66" y="126" xlink:href="#r0"/><use x="72" y="126" xlink:href="#r0"/><use x="90" y="126" xlink:href="#r0"/><use x="96" y="126" xlink:href="#r0"/><use x="108" y="126" xlink:href="#r0"/><use x="120" y="126" xlink:href="#r0"/><use x="126" y="126" xlink:href="#r0"/><use x="12" y="132" xlink:href="#r0"/><use x="18" y="132" xlink:href="#r0"/><use x="24" y="132" xlink:href="#r0"/><use x="30" y="132" xlink:href="#r0"/><use x="36" y="132" xlink:href="#r0"/><use x="42" y="132" xlink:href="#r0"/><use x="48" y="132" xlink:href="#r0"/><use x="60" y="132" xlink:href="#r0"/><use x="66" y="132" xlink:href="#r0"/><use x="72" y="132" xlink:href="#r0"/><use x="78" y="132" xlink:href="#r0"/><use x="84" y="132" xlink:href="#r0"/><use x="108" y="132" xlink:href="#r0"/><use x="114" y="132" xlink:href="#r0"/><use x="120" y="132" xlink:href="#r0"/></svg>
